<?xml version="1.0" encoding="utf-8"?>
<!-- Generator: Adobe Illustrator 18.1.1, SVG Export Plug-In . SVG Version: 6.00 Build 0)  -->
<svg version="1.1" id="Layer_1" xmlns="http://www.w3.org/2000/svg" xmlns:xlink="http://www.w3.org/1999/xlink" x="0px" y="0px"
	 viewBox="31.9 437.3 707.1 231.6" enable-background="new 31.9 437.3 707.1 231.6" xml:space="preserve">
<rect x="31.9" y="437.3" fill="#FF0000" width="707.1" height="231.6"/>
<g>
	<polygon fill="#FFCC00" points="681.8,464.6 145.7,464.6 69.8,631.5 611,631.5 	"/>
</g>
<g>
	<path d="M284.7,580.3v-70.7h22.5c4.3,0,8.1,0.4,11.2,1.3s5.7,2.1,7.7,3.6c2,1.6,3.5,3.5,4.5,5.8s1.5,4.9,1.5,7.7
		c0,1.7-0.3,3.4-0.8,5s-1.4,3.1-2.5,4.5s-2.5,2.6-4.1,3.7c-1.7,1.1-3.6,2-5.8,2.7c5.2,1,9.1,2.9,11.7,5.6c2.6,2.7,3.9,6.2,3.9,10.7
		c0,3-0.6,5.7-1.7,8.2s-2.7,4.6-4.8,6.4c-2.1,1.8-4.7,3.1-7.8,4.1s-6.6,1.5-10.5,1.5L284.7,580.3L284.7,580.3z M294.3,541.3h12.6
		c2.7,0,5-0.3,7-0.9c2-0.6,3.6-1.4,4.9-2.5s2.3-2.3,2.9-3.8s0.9-3.1,0.9-4.9c0-4.1-1.2-7.2-3.7-9.1c-2.5-1.9-6.4-2.9-11.6-2.9h-13
		L294.3,541.3L294.3,541.3z M294.3,548.1v24.6h15.3c2.7,0,5.1-0.3,7-0.9c2-0.6,3.6-1.5,4.8-2.6c1.3-1.1,2.2-2.5,2.8-4
		c0.6-1.6,0.9-3.3,0.9-5.2c0-3.6-1.3-6.5-3.9-8.7c-2.6-2.1-6.5-3.2-11.7-3.2L294.3,548.1L294.3,548.1z"/>
	<path d="M382.3,580.3h-3.9c-0.9,0-1.5-0.1-2.1-0.4c-0.5-0.3-0.9-0.8-1-1.7l-1-4.6c-1.3,1.2-2.6,2.2-3.8,3.2
		c-1.2,0.9-2.6,1.7-3.9,2.4c-1.4,0.6-2.9,1.1-4.4,1.5c-1.6,0.3-3.3,0.5-5.2,0.5c-1.9,0-3.8-0.3-5.4-0.8c-1.7-0.5-3.2-1.4-4.4-2.4
		c-1.2-1.1-2.2-2.5-3-4.1c-0.7-1.7-1.1-3.6-1.1-5.9c0-2,0.5-3.9,1.6-5.7s2.8-3.5,5.3-4.9c2.4-1.4,5.6-2.6,9.5-3.5s8.7-1.4,14.4-1.4
		v-3.9c0-3.9-0.8-6.9-2.5-8.9s-4.1-3-7.4-3c-2.1,0-3.9,0.3-5.4,0.8s-2.7,1.2-3.8,1.8c-1.1,0.7-2,1.3-2.8,1.8s-1.5,0.8-2.3,0.8
		c-0.6,0-1.1-0.2-1.6-0.5c-0.4-0.3-0.8-0.7-1.1-1.2l-1.6-2.8c2.8-2.7,5.7-4.7,8.9-6c3.2-1.3,6.7-2,10.6-2c2.8,0,5.3,0.5,7.4,1.4
		c2.2,0.9,4,2.2,5.5,3.8s2.6,3.6,3.4,6c0.8,2.3,1.1,4.9,1.1,7.7L382.3,580.3L382.3,580.3z M359.5,574.9c1.5,0,3-0.2,4.2-0.5
		c1.3-0.3,2.5-0.8,3.6-1.3c1.1-0.6,2.2-1.3,3.3-2.1c1-0.8,2-1.8,3-2.8v-10.3c-4,0-7.5,0.3-10.3,0.8s-5.1,1.2-6.9,2s-3.1,1.8-3.9,2.9
		c-0.8,1.1-1.2,2.4-1.2,3.8c0,1.3,0.2,2.5,0.6,3.4c0.4,1,1,1.7,1.7,2.4c0.7,0.6,1.6,1.1,2.6,1.3S358.4,574.9,359.5,574.9z"/>
	<path d="M429.7,539.2c-0.3,0.4-0.5,0.6-0.8,0.8s-0.6,0.3-1.1,0.3s-1-0.2-1.6-0.6c-0.6-0.4-1.3-0.9-2.2-1.4c-0.9-0.5-2-0.9-3.2-1.4
		c-1.3-0.4-2.8-0.6-4.7-0.6c-2.4,0-4.6,0.4-6.5,1.3c-1.9,0.9-3.4,2.1-4.7,3.8c-1.3,1.6-2.2,3.6-2.9,6c-0.6,2.3-1,4.9-1,7.8
		c0,3,0.3,5.7,1,8.1c0.7,2.4,1.7,4.3,2.9,5.9c1.2,1.6,2.8,2.8,4.6,3.7c1.8,0.8,3.8,1.3,6,1.3c2.1,0,3.9-0.3,5.3-0.8s2.5-1.1,3.5-1.7
		c0.9-0.6,1.7-1.2,2.3-1.7c0.6-0.5,1.2-0.8,1.8-0.8c0.8,0,1.3,0.3,1.7,0.8l2.5,3.2c-2.2,2.7-4.9,4.6-8.1,5.8
		c-3.3,1.2-6.7,1.8-10.3,1.8c-3.1,0-6-0.6-8.7-1.7c-2.7-1.2-5-2.8-7-5s-3.5-4.9-4.7-8.1c-1.1-3.2-1.7-6.8-1.7-10.9
		c0-3.7,0.5-7.2,1.6-10.3s2.5-5.9,4.5-8.2s4.4-4.1,7.4-5.4c2.9-1.3,6.3-1.9,10.1-1.9c3.5,0,6.6,0.6,9.3,1.7c2.7,1.1,5.1,2.7,7.2,4.8
		L429.7,539.2z"/>
	<path d="M450.8,507.7v42.8h2.3c0.7,0,1.2-0.1,1.6-0.3s0.9-0.6,1.4-1.1l15.8-16.9c0.5-0.5,1-1,1.5-1.3s1.1-0.5,2-0.5h8L465,549.9
		c-0.5,0.6-0.9,1.1-1.4,1.5c-0.4,0.4-0.9,0.8-1.5,1.1c0.6,0.4,1.1,0.8,1.6,1.4c0.5,0.5,0.9,1.1,1.4,1.7l19.5,24.7h-7.9
		c-0.7,0-1.3-0.1-1.8-0.4c-0.5-0.3-1-0.7-1.5-1.3L457,558.1c-0.5-0.7-1-1.1-1.5-1.4c-0.5-0.2-1.2-0.3-2.2-0.3h-2.5v23.9H442v-72.6
		L450.8,507.7L450.8,507.7z"/>
</g>
</svg>
