<?xml version="1.0" encoding="utf-8"?>
<!-- Generator: Adobe Illustrator 18.1.1, SVG Export Plug-In . SVG Version: 6.00 Build 0)  -->
<svg version="1.1" id="Layer_1" xmlns="http://www.w3.org/2000/svg" xmlns:xlink="http://www.w3.org/1999/xlink" x="0px" y="0px"
	 viewBox="-31 12.5 122 35" enable-background="new -31 12.5 122 35" xml:space="preserve">
<g>
	<rect x="-32.7" y="8" fill="#FFCC00" width="126.5" height="44"/>
	<polygon fill="#FF0000" points="90.8,13.4 -15.7,13.4 -30.8,46.5 76.8,46.5 	"/>
	<g>
		<path fill="#FFFFFF" d="M18,29c0,1-0.2,2-0.5,2.9s-0.8,1.6-1.4,2.3s-1.3,1.1-2.2,1.5s-1.8,0.5-2.8,0.5c-1,0-2-0.2-2.8-0.5
			s-1.6-0.8-2.2-1.5c-0.6-0.6-1.1-1.4-1.4-2.3S4.2,30.1,4.2,29s0.2-2,0.5-2.9c0.3-0.9,0.8-1.6,1.4-2.3c0.6-0.6,1.3-1.1,2.2-1.5
			c0.8-0.4,1.8-0.5,2.8-0.5c1,0,2,0.2,2.8,0.5c0.8,0.4,1.6,0.8,2.2,1.5c0.6,0.6,1.1,1.4,1.4,2.3C17.8,27,18,28,18,29z M16.1,29
			c0-0.9-0.1-1.6-0.4-2.3s-0.6-1.3-1-1.7c-0.4-0.5-1-0.8-1.6-1.1c-0.6-0.3-1.3-0.4-2.1-0.4c-0.7,0-1.4,0.1-2,0.4
			c-0.6,0.3-1.1,0.6-1.6,1.1c-0.4,0.5-0.8,1-1,1.7c-0.2,0.7-0.4,1.5-0.4,2.3c0,0.9,0.1,1.6,0.4,2.3c0.2,0.7,0.6,1.3,1,1.7
			c0.4,0.5,1,0.8,1.6,1.1c0.6,0.3,1.3,0.4,2,0.4c0.8,0,1.4-0.1,2.1-0.4c0.6-0.2,1.1-0.6,1.6-1.1c0.4-0.5,0.8-1,1-1.7
			S16.1,29.9,16.1,29z"/>
		<path fill="#FFFFFF" d="M20.3,36v-9.9h1c0.2,0,0.3,0,0.4,0.1c0.1,0.1,0.1,0.2,0.1,0.4l0.1,1.5c0.3-0.7,0.8-1.2,1.3-1.6
			c0.5-0.4,1.1-0.6,1.8-0.6c0.3,0,0.5,0,0.7,0.1c0.2,0.1,0.4,0.1,0.6,0.3l-0.2,1.3c0,0.2-0.1,0.2-0.3,0.2c-0.1,0-0.2,0-0.4-0.1
			c-0.2-0.1-0.5-0.1-0.8-0.1c-0.6,0-1.1,0.2-1.5,0.5c-0.4,0.4-0.7,0.9-1,1.5V36H20.3z"/>
		<path fill="#FFFFFF" d="M35.2,36c-0.2,0-0.4-0.1-0.5-0.4l-0.2-1.2c-0.4,0.5-0.9,0.9-1.5,1.2c-0.5,0.3-1.2,0.5-1.9,0.5
			c-0.6,0-1.1-0.1-1.5-0.3c-0.5-0.2-0.9-0.5-1.2-1c-0.3-0.4-0.6-1-0.8-1.6c-0.2-0.6-0.3-1.4-0.3-2.2c0-0.7,0.1-1.4,0.3-2
			c0.2-0.6,0.5-1.2,0.8-1.6s0.8-0.8,1.3-1.1c0.5-0.3,1.1-0.4,1.8-0.4c0.6,0,1.1,0.1,1.6,0.3c0.4,0.2,0.8,0.5,1.2,0.9v-5.5h1.7V36
			H35.2z M31.8,34.8c0.6,0,1.1-0.1,1.5-0.4c0.4-0.3,0.8-0.6,1.2-1.1v-4.8c-0.3-0.4-0.7-0.7-1.1-0.9s-0.8-0.3-1.3-0.3
			c-0.9,0-1.6,0.3-2.1,1c-0.5,0.7-0.7,1.6-0.7,2.8c0,0.6,0.1,1.2,0.2,1.7c0.1,0.5,0.3,0.8,0.5,1.1c0.2,0.3,0.5,0.5,0.8,0.6
			S31.4,34.8,31.8,34.8z"/>
		<path fill="#FFFFFF" d="M43,26c0.6,0,1.1,0.1,1.6,0.3c0.5,0.2,0.9,0.5,1.3,0.9c0.4,0.4,0.6,0.8,0.9,1.4s0.3,1.2,0.3,1.9
			c0,0.3,0,0.5-0.1,0.5c-0.1,0.1-0.2,0.1-0.3,0.1h-6.6c0,0.6,0.1,1.2,0.3,1.6c0.2,0.5,0.4,0.8,0.6,1.2c0.3,0.3,0.6,0.5,1,0.7
			c0.4,0.2,0.8,0.2,1.3,0.2c0.4,0,0.8-0.1,1.1-0.2c0.3-0.1,0.6-0.2,0.8-0.3c0.2-0.1,0.4-0.2,0.6-0.3c0.2-0.1,0.3-0.2,0.4-0.2
			c0.1,0,0.3,0.1,0.3,0.2l0.5,0.6c-0.2,0.3-0.5,0.5-0.8,0.7c-0.3,0.2-0.6,0.3-1,0.5s-0.7,0.2-1.1,0.3s-0.7,0.1-1.1,0.1
			c-0.7,0-1.3-0.1-1.9-0.3s-1.1-0.6-1.5-1c-0.4-0.4-0.7-1-1-1.7c-0.2-0.7-0.4-1.4-0.4-2.3c0-0.7,0.1-1.3,0.3-1.9
			c0.2-0.6,0.5-1.1,0.9-1.6c0.4-0.4,0.9-0.8,1.5-1C41.7,26.1,42.3,26,43,26z M43.1,27.2c-0.8,0-1.5,0.2-2,0.7
			c-0.5,0.5-0.8,1.2-0.9,2h5.4c0-0.4-0.1-0.8-0.2-1.1c-0.1-0.3-0.3-0.6-0.5-0.9c-0.2-0.2-0.5-0.4-0.8-0.6
			C43.8,27.3,43.5,27.2,43.1,27.2z"/>
		<path fill="#FFFFFF" d="M49.4,36v-9.9h1c0.2,0,0.3,0,0.4,0.1c0.1,0.1,0.1,0.2,0.1,0.4l0.1,1.5c0.3-0.7,0.8-1.2,1.3-1.6
			c0.5-0.4,1.1-0.6,1.8-0.6c0.3,0,0.5,0,0.7,0.1c0.2,0.1,0.4,0.1,0.6,0.3l-0.2,1.3c0,0.2-0.1,0.2-0.3,0.2c-0.1,0-0.2,0-0.4-0.1
			c-0.2-0.1-0.5-0.1-0.8-0.1c-0.6,0-1.1,0.2-1.5,0.5c-0.4,0.4-0.7,0.9-1,1.5V36H49.4z"/>
	</g>
</g>
</svg>
