<?xml version="1.0" encoding="utf-8"?>
<!-- Generator: Adobe Illustrator 18.1.1, SVG Export Plug-In . SVG Version: 6.00 Build 0)  -->
<svg version="1.1" id="Layer_1" xmlns="http://www.w3.org/2000/svg" xmlns:xlink="http://www.w3.org/1999/xlink" x="0px" y="0px"
	 viewBox="-31 12.5 122 35" enable-background="new -31 12.5 122 35" xml:space="preserve">
<g>
	<rect x="-32.7" y="8" fill="#FFCC00" width="126.5" height="44"/>
	<polygon fill="#FF0000" points="90.8,13.4 -15.7,13.4 -30.8,46.5 76.8,46.5 	"/>
	<g>
		<path fill="#FFFFFF" d="M9.3,24.2c-0.1,0.1-0.1,0.2-0.2,0.2S9,24.5,8.9,24.5c-0.1,0-0.2-0.1-0.4-0.2S8.1,24.1,7.9,24
			c-0.2-0.1-0.5-0.3-0.8-0.4c-0.3-0.1-0.7-0.2-1.1-0.2c-0.4,0-0.8,0.1-1.1,0.2c-0.3,0.1-0.6,0.3-0.8,0.5c-0.2,0.2-0.4,0.4-0.5,0.7
			c-0.1,0.3-0.2,0.5-0.2,0.9c0,0.4,0.1,0.7,0.3,1c0.2,0.3,0.4,0.5,0.8,0.7c0.3,0.2,0.7,0.3,1.1,0.5c0.4,0.1,0.8,0.3,1.2,0.4
			c0.4,0.1,0.8,0.3,1.2,0.5C8.3,28.8,8.7,29,9,29.3c0.3,0.3,0.6,0.6,0.8,1c0.2,0.4,0.3,0.9,0.3,1.5c0,0.6-0.1,1.2-0.3,1.7
			c-0.2,0.5-0.5,1-0.9,1.4c-0.4,0.4-0.9,0.7-1.5,0.9c-0.6,0.2-1.2,0.3-2,0.3c-0.9,0-1.7-0.2-2.5-0.5S1.5,34.9,1,34.4l0.5-0.9
			c0.1-0.1,0.1-0.1,0.2-0.2c0.1,0,0.2-0.1,0.2-0.1c0.1,0,0.3,0.1,0.5,0.2s0.4,0.3,0.7,0.5s0.6,0.3,1,0.5c0.4,0.1,0.8,0.2,1.4,0.2
			c0.5,0,0.9-0.1,1.2-0.2s0.6-0.3,0.9-0.5s0.4-0.5,0.6-0.8c0.1-0.3,0.2-0.7,0.2-1c0-0.4-0.1-0.8-0.3-1c-0.2-0.3-0.4-0.5-0.8-0.7
			c-0.3-0.2-0.7-0.3-1.1-0.5s-0.8-0.3-1.2-0.4S4.1,29.2,3.7,29c-0.4-0.2-0.8-0.4-1.1-0.7c-0.3-0.3-0.6-0.6-0.8-1
			c-0.2-0.4-0.3-0.9-0.3-1.6c0-0.5,0.1-1,0.3-1.4c0.2-0.5,0.5-0.9,0.8-1.2s0.8-0.6,1.4-0.9c0.5-0.2,1.2-0.3,1.9-0.3
			c0.8,0,1.5,0.1,2.1,0.4c0.6,0.2,1.2,0.6,1.7,1.1L9.3,24.2z"/>
		<path fill="#FFFFFF" d="M13.7,26.1v6.3c0,0.8,0.2,1.3,0.5,1.7c0.3,0.4,0.9,0.6,1.6,0.6c0.5,0,1-0.1,1.4-0.4s0.9-0.6,1.2-1v-7.3
			h1.7V36h-1c-0.2,0-0.4-0.1-0.5-0.4l-0.1-1.1c-0.4,0.5-0.9,0.9-1.4,1.1s-1.1,0.4-1.8,0.4c-0.5,0-1-0.1-1.4-0.3
			c-0.4-0.2-0.8-0.4-1-0.8c-0.3-0.3-0.5-0.7-0.6-1.2C12,33.5,12,33,12,32.4v-6.3H13.7z"/>
		<path fill="#FFFFFF" d="M23.1,36V21.6h1.7v5.9c0.4-0.5,0.9-0.9,1.4-1.1c0.5-0.3,1.1-0.4,1.8-0.4c0.6,0,1.1,0.1,1.6,0.3
			c0.5,0.2,0.9,0.5,1.2,1c0.3,0.4,0.6,1,0.8,1.6s0.3,1.4,0.3,2.2c0,0.7-0.1,1.4-0.3,2c-0.2,0.6-0.5,1.2-0.8,1.6
			c-0.4,0.5-0.8,0.8-1.3,1.1c-0.5,0.3-1.1,0.4-1.8,0.4c-0.6,0-1.2-0.1-1.6-0.4c-0.4-0.2-0.8-0.6-1.2-1l-0.1,0.9
			c-0.1,0.2-0.2,0.4-0.4,0.4H23.1z M27.5,27.4c-0.6,0-1.1,0.1-1.5,0.4c-0.4,0.3-0.8,0.6-1.2,1.1v4.8c0.3,0.4,0.7,0.7,1,0.9
			c0.4,0.2,0.8,0.3,1.3,0.3c0.9,0,1.6-0.3,2.1-1c0.5-0.7,0.7-1.6,0.7-2.8c0-0.6-0.1-1.2-0.2-1.7c-0.1-0.5-0.3-0.8-0.5-1.1
			c-0.2-0.3-0.5-0.5-0.8-0.6S27.9,27.4,27.5,27.4z"/>
		<path fill="#FFFFFF" d="M34,36v-9.9h1c0.2,0,0.4,0.1,0.5,0.4l0.1,1c0.4-0.4,0.8-0.8,1.2-1.1s1-0.4,1.6-0.4c0.7,0,1.2,0.2,1.6,0.6
			s0.7,0.9,0.9,1.5c0.1-0.4,0.3-0.7,0.5-0.9s0.5-0.5,0.8-0.6s0.6-0.3,0.9-0.4c0.3-0.1,0.6-0.1,1-0.1c0.5,0,1,0.1,1.4,0.2
			c0.4,0.2,0.8,0.4,1,0.7c0.3,0.3,0.5,0.7,0.6,1.2c0.2,0.5,0.2,1,0.2,1.6V36h-1.7v-6.3c0-0.8-0.2-1.4-0.5-1.8
			c-0.3-0.4-0.8-0.6-1.5-0.6c-0.3,0-0.6,0.1-0.8,0.2c-0.3,0.1-0.5,0.2-0.7,0.4s-0.3,0.4-0.5,0.7c-0.1,0.3-0.2,0.6-0.2,1V36h-1.7
			v-6.3c0-0.8-0.2-1.4-0.5-1.8c-0.3-0.4-0.8-0.6-1.4-0.6c-0.4,0-0.8,0.1-1.2,0.3c-0.4,0.2-0.7,0.5-1,0.9V36H34z"/>
		<path fill="#FFFFFF" d="M52.4,23c0,0.2,0,0.3-0.1,0.5s-0.2,0.3-0.3,0.4c-0.1,0.1-0.2,0.2-0.4,0.3s-0.3,0.1-0.5,0.1s-0.3,0-0.5-0.1
			s-0.3-0.2-0.4-0.3c-0.1-0.1-0.2-0.2-0.3-0.4c-0.1-0.1-0.1-0.3-0.1-0.5s0-0.3,0.1-0.5c0.1-0.2,0.2-0.3,0.3-0.4s0.2-0.2,0.4-0.3
			c0.1-0.1,0.3-0.1,0.5-0.1s0.3,0,0.5,0.1c0.2,0.1,0.3,0.2,0.4,0.3c0.1,0.1,0.2,0.2,0.3,0.4C52.3,22.7,52.4,22.8,52.4,23z M52,26.1
			V36h-1.7v-9.9H52z"/>
		<path fill="#FFFFFF" d="M58,36.2c-0.8,0-1.4-0.2-1.8-0.7s-0.6-1.1-0.6-1.9v-6.1h-1.2c-0.1,0-0.2,0-0.3-0.1
			c-0.1-0.1-0.1-0.2-0.1-0.3v-0.7l1.6-0.2l0.4-3.1c0-0.1,0.1-0.2,0.1-0.2c0.1-0.1,0.2-0.1,0.3-0.1h0.9v3.4h2.8v1.3h-2.8v5.9
			c0,0.4,0.1,0.7,0.3,0.9c0.2,0.2,0.5,0.3,0.8,0.3c0.2,0,0.3,0,0.5-0.1c0.1,0,0.2-0.1,0.3-0.2s0.2-0.1,0.2-0.2s0.1-0.1,0.2-0.1
			c0.1,0,0.2,0.1,0.2,0.2l0.5,0.8c-0.3,0.3-0.7,0.5-1.1,0.7S58.5,36.2,58,36.2z"/>
	</g>
</g>
</svg>
