<?xml version="1.0" encoding="utf-8"?>
<!-- Generator: Adobe Illustrator 18.1.1, SVG Export Plug-In . SVG Version: 6.00 Build 0)  -->
<svg version="1.1" id="Layer_1" xmlns="http://www.w3.org/2000/svg" xmlns:xlink="http://www.w3.org/1999/xlink" x="0px" y="0px"
	 viewBox="0 0 122 34" enable-background="new 0 0 122 34" xml:space="preserve">
<rect x="-4.2" y="-4.5" width="127.7" height="44.4"/>
<g>
	<polygon fill="#FFCC00" points="121.8,0.4 15.3,0.4 0.2,33.5 107.7,33.5 	"/>
	<g>
		<path d="M38.7,10.9c-0.1,0.1-0.1,0.2-0.2,0.2s-0.1,0.1-0.3,0.1c-0.1,0-0.2-0.1-0.4-0.2s-0.3-0.2-0.6-0.4c-0.2-0.1-0.5-0.3-0.8-0.4
			c-0.3-0.1-0.7-0.2-1.1-0.2c-0.4,0-0.8,0.1-1.1,0.2c-0.3,0.1-0.6,0.3-0.8,0.5c-0.2,0.2-0.4,0.4-0.5,0.7c-0.1,0.3-0.2,0.5-0.2,0.9
			c0,0.4,0.1,0.7,0.3,1c0.2,0.3,0.4,0.5,0.8,0.7c0.3,0.2,0.7,0.3,1.1,0.5c0.4,0.1,0.8,0.3,1.2,0.4c0.4,0.1,0.8,0.3,1.2,0.5
			c0.4,0.2,0.8,0.4,1.1,0.7c0.3,0.3,0.6,0.6,0.8,1c0.2,0.4,0.3,0.9,0.3,1.5c0,0.6-0.1,1.2-0.3,1.7c-0.2,0.5-0.5,1-0.9,1.4
			c-0.4,0.4-0.9,0.7-1.5,0.9c-0.6,0.2-1.2,0.3-2,0.3c-0.9,0-1.7-0.2-2.5-0.5s-1.4-0.8-1.9-1.3l0.5-0.9C31,20,31,20,31.1,19.9
			c0.1,0,0.2-0.1,0.2-0.1c0.1,0,0.3,0.1,0.5,0.2s0.4,0.3,0.7,0.5s0.6,0.3,1,0.5c0.4,0.1,0.8,0.2,1.4,0.2c0.5,0,0.9-0.1,1.2-0.2
			s0.6-0.3,0.9-0.5s0.4-0.5,0.6-0.8c0.1-0.3,0.2-0.7,0.2-1c0-0.4-0.1-0.8-0.3-1c-0.2-0.3-0.4-0.5-0.8-0.7c-0.3-0.2-0.7-0.3-1.1-0.5
			s-0.8-0.3-1.2-0.4s-0.8-0.3-1.2-0.5c-0.4-0.2-0.8-0.4-1.1-0.7c-0.3-0.3-0.6-0.6-0.8-1C31.1,13.5,31,13,31,12.4
			c0-0.5,0.1-1,0.3-1.4c0.2-0.5,0.5-0.9,0.8-1.2s0.8-0.6,1.4-0.9c0.5-0.2,1.2-0.3,1.9-0.3c0.8,0,1.5,0.1,2.1,0.4
			c0.6,0.2,1.2,0.6,1.7,1.1L38.7,10.9z"/>
		<path d="M43.1,12.8v6.3c0,0.8,0.2,1.3,0.5,1.7c0.3,0.4,0.9,0.6,1.6,0.6c0.5,0,1-0.1,1.4-0.4s0.9-0.6,1.2-1v-7.3h1.7v9.9h-1
			c-0.2,0-0.4-0.1-0.5-0.4L48,21.2c-0.4,0.5-0.9,0.9-1.4,1.1s-1.1,0.4-1.8,0.4c-0.5,0-1-0.1-1.4-0.3c-0.4-0.2-0.8-0.4-1-0.8
			c-0.3-0.3-0.5-0.7-0.6-1.2c-0.1-0.5-0.2-1-0.2-1.5v-6.3H43.1z"/>
		<path d="M52.5,22.7V8.3h1.7v5.9c0.4-0.5,0.9-0.9,1.4-1.1c0.5-0.3,1.1-0.4,1.8-0.4c0.6,0,1.1,0.1,1.6,0.3c0.5,0.2,0.9,0.5,1.2,1
			c0.3,0.4,0.6,1,0.8,1.6s0.3,1.4,0.3,2.2c0,0.7-0.1,1.4-0.3,2c-0.2,0.6-0.5,1.2-0.8,1.6s-0.8,0.8-1.3,1.1c-0.5,0.3-1.1,0.4-1.8,0.4
			c-0.6,0-1.2-0.1-1.6-0.4c-0.4-0.2-0.8-0.6-1.2-1l-0.1,0.9c-0.1,0.2-0.2,0.4-0.4,0.4H52.5z M56.9,14c-0.6,0-1.1,0.1-1.5,0.4
			c-0.4,0.3-0.8,0.6-1.2,1.1v4.8c0.3,0.4,0.7,0.7,1,0.9c0.4,0.2,0.8,0.3,1.3,0.3c0.9,0,1.6-0.3,2.1-1c0.5-0.7,0.7-1.6,0.7-2.8
			c0-0.6-0.1-1.2-0.2-1.7c-0.1-0.5-0.3-0.8-0.5-1.1c-0.2-0.3-0.5-0.5-0.8-0.6S57.3,14,56.9,14z"/>
		<path d="M63.4,22.7v-9.9h1c0.2,0,0.4,0.1,0.5,0.4l0.1,1c0.4-0.4,0.8-0.8,1.2-1.1s1-0.4,1.6-0.4c0.7,0,1.2,0.2,1.6,0.6
			c0.4,0.4,0.7,0.9,0.9,1.5c0.1-0.4,0.3-0.7,0.5-0.9s0.5-0.5,0.8-0.6c0.3-0.2,0.6-0.3,0.9-0.4c0.3-0.1,0.6-0.1,1-0.1
			c0.5,0,1,0.1,1.4,0.2c0.4,0.2,0.8,0.4,1,0.7c0.3,0.3,0.5,0.7,0.6,1.2c0.1,0.5,0.2,1,0.2,1.6v6.3h-1.7v-6.3c0-0.8-0.2-1.4-0.5-1.8
			c-0.3-0.4-0.8-0.6-1.5-0.6c-0.3,0-0.6,0.1-0.8,0.2c-0.3,0.1-0.5,0.2-0.7,0.4c-0.2,0.2-0.4,0.4-0.5,0.7c-0.1,0.3-0.2,0.6-0.2,1v6.3
			h-1.7v-6.3c0-0.8-0.2-1.4-0.5-1.8S67.9,14,67.3,14c-0.4,0-0.8,0.1-1.2,0.3c-0.4,0.2-0.7,0.5-1,0.9v7.4H63.4z"/>
		<path d="M81.7,9.7c0,0.2,0,0.3-0.1,0.5s-0.2,0.3-0.3,0.4c-0.1,0.1-0.2,0.2-0.4,0.3c-0.1,0.1-0.3,0.1-0.5,0.1c-0.2,0-0.3,0-0.5-0.1
			s-0.3-0.2-0.4-0.3c-0.1-0.1-0.2-0.2-0.3-0.4c-0.1-0.1-0.1-0.3-0.1-0.5s0-0.3,0.1-0.5c0.1-0.2,0.2-0.3,0.3-0.4
			c0.1-0.1,0.2-0.2,0.4-0.3c0.1-0.1,0.3-0.1,0.5-0.1c0.2,0,0.3,0,0.5,0.1c0.2,0.1,0.3,0.2,0.4,0.3c0.1,0.1,0.2,0.2,0.3,0.4
			C81.7,9.3,81.7,9.5,81.7,9.7z M81.4,12.8v9.9h-1.7v-9.9H81.4z"/>
		<path d="M87.4,22.8c-0.8,0-1.4-0.2-1.8-0.7S85,21.1,85,20.3v-6.1h-1.2c-0.1,0-0.2,0-0.3-0.1c-0.1-0.1-0.1-0.2-0.1-0.3v-0.7L85,13
			l0.4-3.1c0-0.1,0.1-0.2,0.1-0.2c0.1-0.1,0.2-0.1,0.3-0.1h0.9V13h2.8v1.3h-2.8v5.9c0,0.4,0.1,0.7,0.3,0.9s0.5,0.3,0.8,0.3
			c0.2,0,0.3,0,0.5-0.1c0.1,0,0.2-0.1,0.3-0.2s0.2-0.1,0.2-0.2s0.1-0.1,0.2-0.1c0.1,0,0.2,0.1,0.2,0.2l0.5,0.8
			c-0.3,0.3-0.7,0.5-1.1,0.7C88.3,22.8,87.9,22.8,87.4,22.8z"/>
	</g>
</g>
<g>
</g>
<g>
</g>
<g>
</g>
<g>
</g>
<g>
</g>
<g>
</g>
</svg>
