<?xml version="1.0" encoding="utf-8"?>
<!-- Generator: Adobe Illustrator 18.1.1, SVG Export Plug-In . SVG Version: 6.00 Build 0)  -->
<svg version="1.1" id="Layer_1" xmlns="http://www.w3.org/2000/svg" xmlns:xlink="http://www.w3.org/1999/xlink" x="0px" y="0px"
	 viewBox="-2.5 11 66.6 37.9" enable-background="new -2.5 11 66.6 37.9" xml:space="preserve">
<g>
	<polygon fill="#FFCC00" points="64.1,11 22.6,11 -2.5,49 40.8,49 	"/>
	<path d="M31,38.5c-3.4,0-6.8,0-10,0c-0.3,0-0.3,0-0.3-0.3c0-5.1,0-10.1,0-15.1c0-0.3,0-0.3,0.3-0.3c6.8,0,13.4,0,20.2,0
		c0.3,0,0.3,0,0.3,0.3c0,5.1,0,10.1,0,15.1c0,0.3,0,0.3-0.3,0.3C37.8,38.5,34.4,38.5,31,38.5z M38.9,24.2c-5.3,0-10.6,0-15.9,0
		l0.2,0.2c2.1,2.1,4.2,4.2,6.3,6.3c0.8,0.8,2,0.8,2.8,0c2.1-2.1,4.3-4.3,6.3-6.3L38.9,24.2z M23,37L23,37c5.3,0.1,10.6,0.1,15.8,0.1
		c-1.8-1.8-3.6-3.6-5.3-5.4L33.3,32c-0.7,0.6-1.4,0.9-2.3,0.9s-1.6-0.3-2.3-0.9c-0.2-0.2-0.2-0.2-0.5,0c-1.7,1.7-3.4,3.3-5,5L23,37z
		 M22,36c1.8-1.8,3.6-3.6,5.4-5.3c-1.8-1.8-3.6-3.5-5.4-5.3C22,28.8,22,32.4,22,36z M39.9,36c0-3.6,0-7.2,0-10.7
		c-1.8,1.8-3.6,3.6-5.4,5.3C36.3,32.4,38.1,34.2,39.9,36z"/>
</g>
</svg>
