<?xml version="1.0" encoding="utf-8"?>
<!-- Generator: Adobe Illustrator 18.1.1, SVG Export Plug-In . SVG Version: 6.00 Build 0)  -->
<svg version="1.1" id="Layer_1" xmlns="http://www.w3.org/2000/svg" xmlns:xlink="http://www.w3.org/1999/xlink" x="0px" y="0px"
	 viewBox="69.8 154.1 121 33.8" enable-background="new 69.8 154.1 121 33.8" xml:space="preserve">
<rect x="62.3" y="148.7" fill="#FF0000" width="139.8" height="45.8"/>
<g>
	<polygon fill="#FFCC00" points="190.8,154.1 84.8,154.1 69.8,187.1 176.8,187.1 	"/>
	<g>
		<path d="M108.1,164.6c-0.1,0.1-0.1,0.2-0.2,0.2c-0.1,0-0.1,0.1-0.3,0.1c-0.1,0-0.2-0.1-0.4-0.2c-0.2-0.1-0.3-0.2-0.6-0.4
			c-0.2-0.1-0.5-0.3-0.8-0.4c-0.3-0.1-0.7-0.2-1.1-0.2c-0.4,0-0.8,0.1-1.1,0.2c-0.3,0.1-0.6,0.3-0.8,0.5c-0.2,0.2-0.4,0.4-0.5,0.7
			s-0.2,0.5-0.2,0.9c0,0.4,0.1,0.7,0.3,1c0.2,0.3,0.4,0.5,0.8,0.7c0.3,0.2,0.7,0.3,1.1,0.5c0.4,0.1,0.8,0.3,1.2,0.4
			c0.4,0.1,0.8,0.3,1.2,0.5c0.4,0.2,0.8,0.4,1.1,0.7c0.3,0.3,0.6,0.6,0.8,1c0.2,0.4,0.3,0.9,0.3,1.5s-0.1,1.2-0.3,1.7
			c-0.2,0.5-0.5,1-0.9,1.4c-0.4,0.4-0.9,0.7-1.5,0.9c-0.6,0.2-1.2,0.3-2,0.3c-0.9,0-1.7-0.2-2.5-0.5c-0.8-0.3-1.4-0.8-1.9-1.3
			l0.5-0.9c0.1-0.2,0.1-0.2,0.2-0.3c0.1,0,0.2-0.1,0.2-0.1c0.1,0,0.3,0.1,0.5,0.2c0.2,0.1,0.4,0.3,0.7,0.5c0.3,0.2,0.6,0.3,1,0.5
			c0.4,0.1,0.8,0.2,1.4,0.2c0.5,0,0.9-0.1,1.2-0.2c0.3-0.1,0.6-0.3,0.9-0.5c0.3-0.2,0.4-0.5,0.6-0.8c0.1-0.3,0.2-0.7,0.2-1
			c0-0.4-0.1-0.8-0.3-1c-0.2-0.3-0.4-0.5-0.8-0.7c-0.3-0.2-0.7-0.3-1.1-0.5c-0.4-0.2-0.8-0.3-1.2-0.4c-0.4-0.1-0.8-0.3-1.2-0.5
			s-0.8-0.4-1.1-0.7c-0.3-0.3-0.6-0.6-0.8-1c-0.2-0.4-0.3-0.9-0.3-1.5c0-0.5,0.1-1,0.3-1.4c0.2-0.5,0.5-0.9,0.8-1.2
			c0.3-0.3,0.8-0.6,1.4-0.9c0.5-0.2,1.2-0.3,1.9-0.3c0.8,0,1.5,0.1,2.1,0.4c0.6,0.2,1.2,0.6,1.7,1.1L108.1,164.6z"/>
		<path d="M112.5,166.5v6.3c0,0.8,0.2,1.3,0.5,1.7c0.3,0.4,0.9,0.6,1.6,0.6c0.5,0,1-0.1,1.4-0.4s0.9-0.6,1.2-1v-7.3h1.7v9.9h-1
			c-0.2,0-0.4-0.1-0.5-0.4v-1c-0.4,0.5-0.9,0.9-1.4,1.1c-0.5,0.2-1.1,0.4-1.8,0.4c-0.5,0-1-0.1-1.4-0.3c-0.4-0.2-0.8-0.4-1-0.8
			c-0.3-0.3-0.5-0.7-0.6-1.2s-0.2-1-0.2-1.5v-6.3h1.5V166.5z"/>
		<path d="M121.8,176.3V162h1.7v5.9c0.4-0.5,0.9-0.9,1.4-1.1c0.5-0.3,1.1-0.4,1.8-0.4c0.6,0,1.1,0.1,1.6,0.3c0.5,0.2,0.9,0.5,1.2,1
			c0.3,0.4,0.6,1,0.8,1.6c0.2,0.6,0.3,1.4,0.3,2.2c0,0.7-0.1,1.4-0.3,2c-0.2,0.6-0.5,1.2-0.8,1.6c-0.3,0.4-0.8,0.8-1.3,1.1
			s-1.1,0.4-1.8,0.4c-0.6,0-1.2-0.1-1.6-0.4c-0.4-0.2-0.8-0.6-1.2-1l-0.1,0.9c-0.1,0.2-0.2,0.4-0.4,0.4L121.8,176.3L121.8,176.3z
			 M126.2,167.6c-0.6,0-1.1,0.1-1.5,0.4c-0.4,0.3-0.8,0.6-1.2,1.1v4.8c0.3,0.4,0.7,0.7,1,0.9c0.4,0.2,0.8,0.3,1.3,0.3
			c0.9,0,1.6-0.3,2.1-1c0.5-0.7,0.7-1.6,0.7-2.8c0-0.6-0.1-1.2-0.2-1.7c-0.1-0.5-0.3-0.8-0.5-1.1c-0.2-0.3-0.5-0.5-0.8-0.6
			C126.8,167.8,126.6,167.6,126.2,167.6z"/>
		<path d="M132.7,176.3v-9.9h1c0.2,0,0.4,0.1,0.5,0.4l0.1,1c0.4-0.4,0.8-0.8,1.2-1.1c0.4-0.3,1-0.4,1.6-0.4c0.7,0,1.2,0.2,1.6,0.6
			c0.4,0.4,0.7,0.9,0.9,1.5c0.1-0.4,0.3-0.7,0.5-0.9c0.2-0.2,0.5-0.5,0.8-0.6c0.3-0.2,0.6-0.3,0.9-0.4c0.3-0.1,0.6-0.1,1-0.1
			c0.5,0,1,0.1,1.4,0.2c0.4,0.2,0.8,0.4,1,0.7c0.3,0.3,0.5,0.7,0.6,1.2c0.1,0.5,0.2,1,0.2,1.6v6.3h-1.7v-6.3c0-0.8-0.2-1.4-0.5-1.8
			c-0.3-0.4-0.8-0.6-1.5-0.6c-0.3,0-0.6,0.1-0.8,0.2c-0.3,0.1-0.5,0.2-0.7,0.4s-0.4,0.4-0.5,0.7c-0.1,0.3-0.2,0.6-0.2,1v6.3h-1.7
			V170c0-0.8-0.2-1.4-0.5-1.8c-0.3-0.4-0.7-0.6-1.3-0.6c-0.4,0-0.8,0.1-1.2,0.3c-0.4,0.2-0.7,0.5-1,0.9v7.4L132.7,176.3L132.7,176.3
			z"/>
		<path d="M150.9,163.4c0,0.2,0,0.3-0.1,0.5c-0.1,0.2-0.2,0.3-0.3,0.4c-0.1,0.1-0.2,0.2-0.4,0.3c-0.1,0.1-0.3,0.1-0.5,0.1
			s-0.3,0-0.5-0.1s-0.3-0.2-0.4-0.3c-0.1-0.1-0.2-0.2-0.3-0.4c-0.1-0.1-0.1-0.3-0.1-0.5c0-0.2,0-0.3,0.1-0.5
			c0.1-0.2,0.2-0.3,0.3-0.4c0.1-0.1,0.2-0.2,0.4-0.3c0.1-0.1,0.3-0.1,0.5-0.1s0.3,0,0.5,0.1c0.2,0.1,0.3,0.2,0.4,0.3
			c0.1,0.1,0.2,0.2,0.3,0.4C150.9,163,150.9,163.2,150.9,163.4z M150.6,166.5v9.9h-1.7v-9.9C148.9,166.5,150.6,166.5,150.6,166.5z"
			/>
		<path d="M156.6,176.4c-0.8,0-1.4-0.2-1.8-0.7c-0.4-0.5-0.6-1-0.6-1.8v-6.1H153c-0.1,0-0.2,0-0.3-0.1c-0.1-0.1-0.1-0.2-0.1-0.3
			v-0.7l1.6-0.1l0.4-3.1c0-0.1,0.1-0.2,0.1-0.2c0.1-0.1,0.2-0.1,0.3-0.1h0.9v3.4h2.8v1.3h-2.8v5.9c0,0.4,0.1,0.7,0.3,0.9
			c0.2,0.2,0.5,0.3,0.8,0.3c0.2,0,0.3,0,0.5-0.1c0.1,0,0.2-0.1,0.3-0.2c0.1-0.1,0.2-0.1,0.2-0.2s0.1-0.1,0.2-0.1
			c0.1,0,0.2,0.1,0.2,0.2l0.5,0.8c-0.3,0.3-0.7,0.5-1.1,0.7C157.5,176.4,157.1,176.4,156.6,176.4z"/>
	</g>
</g>
</svg>
