<?xml version="1.0" encoding="utf-8"?>
<!-- Generator: Adobe Illustrator 18.1.1, SVG Export Plug-In . SVG Version: 6.00 Build 0)  -->
<svg version="1.1" id="Layer_1" xmlns="http://www.w3.org/2000/svg" xmlns:xlink="http://www.w3.org/1999/xlink" x="0px" y="0px"
	 viewBox="0 0 47.6 91.2" enable-background="new 0 0 47.6 91.2" xml:space="preserve">
<g>
	<path stroke="#000000" stroke-width="2" stroke-miterlimit="10" d="M19.9,79.4c-3.8-0.3-7.3-1.3-10.5-2.8c-3.2-1.5-5.9-3.5-8.1-5.9
		l2.5-3.9C4,66.5,4.3,66.2,4.7,66c0.4-0.2,0.8-0.3,1.3-0.3c0.6,0,1.3,0.3,2,0.9c0.8,0.6,1.7,1.3,2.8,2.1c1.1,0.8,2.4,1.5,4,2.3
		c1.5,0.7,3.4,1.2,5.5,1.5l1.8-25.2c-2.2-0.7-4.4-1.4-6.5-2.3c-2.1-0.8-4.1-1.9-5.7-3.3c-1.7-1.3-3.1-3-4.1-5.1
		c-1-2-1.5-4.6-1.5-7.7c0-2.3,0.5-4.6,1.4-6.8c0.9-2.2,2.2-4.2,3.9-5.9c1.7-1.7,3.9-3.1,6.4-4.2c2.5-1.1,5.4-1.6,8.7-1.6l0.5-6.9
		c0.1-0.6,0.3-1.1,0.7-1.6c0.4-0.5,1-0.7,1.7-0.7h3.1L30,10.4c3.3,0.4,6.2,1.3,8.6,2.6c2.4,1.3,4.6,2.9,6.5,4.7l-2,3.1
		c-0.6,0.9-1.4,1.4-2.2,1.4c-0.4,0-1-0.2-1.6-0.6c-0.6-0.4-1.4-0.9-2.4-1.4c-0.9-0.5-2-1-3.2-1.6s-2.6-0.9-4.1-1.1l-1.6,23
		c2.3,0.7,4.5,1.5,6.7,2.3c2.2,0.8,4.2,1.9,6,3.2c1.8,1.3,3.2,2.9,4.3,4.9c1.1,2,1.6,4.4,1.6,7.3c0,2.9-0.5,5.5-1.4,8.1
		S42.8,71,41,72.9c-1.8,1.9-4.1,3.5-6.7,4.6c-2.6,1.2-5.7,1.8-9,1.8l-0.6,8.5c-0.1,0.6-0.3,1.1-0.7,1.6c-0.4,0.5-1,0.7-1.6,0.7h-3.1
		L19.9,79.4z M12.2,28c0,1.5,0.3,2.8,0.8,4c0.5,1.1,1.3,2.1,2.2,3s2.1,1.6,3.3,2.2c1.3,0.6,2.6,1.2,4.1,1.7l1.4-21.4
		c-2.1,0.2-3.8,0.6-5.3,1.2c-1.5,0.6-2.7,1.4-3.7,2.4c-1,1-1.7,2-2.2,3.2C12.4,25.4,12.2,26.7,12.2,28z M38.6,59.5
		c0-1.6-0.3-2.9-0.9-4.1s-1.4-2.1-2.4-2.9c-1-0.8-2.2-1.5-3.6-2.1c-1.4-0.6-2.8-1.2-4.4-1.7l-1.6,23.7c2.1-0.2,3.9-0.6,5.5-1.4
		c1.6-0.7,2.9-1.6,4-2.7c1.1-1.1,1.9-2.4,2.5-3.9C38.3,62.9,38.6,61.3,38.6,59.5z"/>
</g>
<g>
</g>
<g>
</g>
<g>
</g>
<g>
</g>
<g>
</g>
<g>
</g>
</svg>
