<?xml version="1.0" encoding="utf-8"?>
<!-- Generator: Adobe Illustrator 18.1.1, SVG Export Plug-In . SVG Version: 6.00 Build 0)  -->
<svg version="1.1" id="Layer_1" xmlns="http://www.w3.org/2000/svg" xmlns:xlink="http://www.w3.org/1999/xlink" x="0px" y="0px"
	 viewBox="0 0 102.6 89.4" enable-background="new 0 0 102.6 89.4" xml:space="preserve">
<path fill="none" stroke="#000000" stroke-width="10" stroke-miterlimit="10" d="M51.3,84.4c-0.9,0-1.7-0.3-2.3-0.9L16.8,52.3
	C16.4,52,16,51.6,15.4,51c-0.6-0.6-1.6-1.7-2.9-3.4s-2.5-3.3-3.5-5c-1-1.7-2-3.8-2.8-6.3C5.4,33.9,5,31.5,5,29.2
	c0-7.6,2.2-13.5,6.6-17.8S22,5,29.7,5c2.1,0,4.3,0.4,6.5,1.1c2.2,0.7,4.3,1.7,6.2,3c1.9,1.3,3.6,2.4,4.9,3.5
	c1.4,1.1,2.7,2.3,3.9,3.5c1.2-1.2,2.5-2.4,3.9-3.5c1.4-1.1,3-2.3,4.9-3.5c1.9-1.3,4-2.3,6.2-3C68.6,5.4,70.7,5,72.9,5
	c7.7,0,13.8,2.1,18.1,6.4s6.6,10.2,6.6,17.8c0,7.6-3.9,15.4-11.8,23.2l-32.2,31C52.9,84,52.2,84.4,51.3,84.4L51.3,84.4z"/>
<g>
</g>
<g>
</g>
<g>
</g>
<g>
</g>
<g>
</g>
<g>
</g>
</svg>
