<?xml version="1.0" encoding="utf-8"?>
<!-- Generator: Adobe Illustrator 18.1.1, SVG Export Plug-In . SVG Version: 6.00 Build 0)  -->
<svg version="1.1" id="Layer_1" xmlns="http://www.w3.org/2000/svg" xmlns:xlink="http://www.w3.org/1999/xlink" x="0px" y="0px"
	 viewBox="0 0 95.7 114.3" enable-background="new 0 0 95.7 114.3" xml:space="preserve">
<g>
	<path stroke="#000000" stroke-width="3" stroke-linecap="round" stroke-linejoin="round" stroke-miterlimit="10" d="M37.7,90.8
		c-1.1-0.9-3.1-1.8-3.2-2.8C34,77.7,29.1,68.9,23.3,61.1c-12.1-16.5-3.1-36.2,15.5-41.3c12.5-3.5,23.5-0.2,32.3,9.3
		c7.5,8.1,8.2,19.4,2.5,28.9c-2.7,4.5-5.7,8.9-7.8,13.7c-2.1,4.9-3.5,10.1-4.9,15.3c-0.8,3.1-0.5,3.1-5.3,3
		c1.2-5.2,1.8-10.5,3.8-15.2c2.6-6.3,6.1-12.3,9.7-18c6.5-10.3,4.4-22.3-5.7-29.3c-9.1-6.3-22.9-6.2-31.9,0.1
		c-9.9,7-12.1,18.7-5.7,29c5.2,8.3,10.6,16.6,12.4,26.6c0.4,2.1,0.5,4.2,0.7,6.3C38.5,89.9,38.1,90.4,37.7,90.8z"/>
	<path stroke="#000000" stroke-width="3" stroke-linecap="round" stroke-linejoin="round" stroke-miterlimit="10" d="M43.4,105.6
		c-0.7-0.7-1.8-1.2-1.9-1.9c-0.1-0.8,0.3-2.2,0.9-2.5c4.4-1.9,8.9-3.7,13.4-5.2c0.6-0.2,2.1,0.8,2.5,1.5c0.3,0.5-0.3,2.2-0.8,2.4
		C53,102,48.4,103.7,43.4,105.6z"/>
	<path stroke="#000000" stroke-width="3" stroke-linecap="round" stroke-linejoin="round" stroke-miterlimit="10" d="M66.5,20.1
		c-0.4-1.2-1.5-2.8-1.1-3.4c2-2.7,4.3-5.3,6.8-7.6c0.3-0.3,2.2,0.9,3.3,1.4c-2.4,3.3-4.7,6.6-7.1,9.9C67.7,20.3,67.1,20.2,66.5,20.1
		z"/>
	<path stroke="#000000" stroke-width="3" stroke-linecap="round" stroke-linejoin="round" stroke-miterlimit="10" d="M50.2,4.8
		c-0.3,3.4-0.3,5.7-0.7,7.8c-0.2,0.9-1.3,2-2.2,2.3c-0.6,0.1-2.1-1.2-2.1-1.9c0-3.4,0.2-6.7,0.7-10.1c0.1-0.6,1.7-1,2.6-1.5
		C49.1,2.9,49.9,4.3,50.2,4.8z"/>
	<path stroke="#000000" stroke-width="3" stroke-linecap="round" stroke-linejoin="round" stroke-miterlimit="10" d="M59.8,107.4
		c-1,1.2-1.4,2.1-2,2.3c-2.8,1.1-5.5,2.2-8.4,3c-0.8,0.2-2.1-0.7-2.7-1.5c-0.3-0.4,0.3-2.2,0.8-2.4c3-1.3,6.1-2.4,9.2-3.2
		C57.4,105.4,58.6,106.7,59.8,107.4z"/>
	<path stroke="#000000" stroke-width="3" stroke-linecap="round" stroke-linejoin="round" stroke-miterlimit="10" d="M19,11.4
		c0.9-1.3,1.2-2.3,1.8-2.6c0.6-0.3,1.8-0.2,2.2,0.3c2.3,2.3,4.5,4.7,6.5,7.2c0.4,0.5,0.2,1.9-0.2,2.7c-0.3,0.5-1.9,0.9-2.2,0.6
		C24.3,17,21.7,14.2,19,11.4z"/>
	<path stroke="#000000" stroke-width="3" stroke-linecap="round" stroke-linejoin="round" stroke-miterlimit="10" d="M4,29.3
		c3.4,1.1,6.3,1.9,9,3.1c0.8,0.3,1.6,1.9,1.4,2.6c-0.2,0.8-1.8,1.8-2.5,1.6c-3.1-0.8-6.2-1.9-9.3-3.1c-0.6-0.3-1.3-1.9-1.1-2.3
		C2.1,30.3,3.3,29.8,4,29.3z"/>
	<path stroke="#000000" stroke-width="3" stroke-linecap="round" stroke-linejoin="round" stroke-miterlimit="10" d="M94.2,31.3
		c-0.9,1.1-1.2,1.9-1.8,2.1c-3,1.2-6.1,2.3-9.3,3.1c-0.7,0.2-2-0.8-2.4-1.6c-0.3-0.5,0.4-2.2,1-2.4c3-1.2,6.2-2.2,9.4-2.9
		C91.9,29.4,93,30.6,94.2,31.3z"/>
	<path stroke="#000000" stroke-width="3" stroke-linecap="round" stroke-linejoin="round" stroke-miterlimit="10" d="M43.1,95.3
		c-0.7-0.6-2-1.1-2-1.7c0-0.9,0.5-2.5,1.3-2.8c2.7-1.2,5.6-2.1,8.5-2.8c0.7-0.2,2.2,0.6,2.3,1.2c0.1,0.9-0.3,2.5-1,2.8
		C49.4,93.2,46.4,94.1,43.1,95.3z"/>
</g>
<g>
</g>
<g>
</g>
<g>
</g>
<g>
</g>
<g>
</g>
<g>
</g>
</svg>
