<?xml version="1.0" encoding="utf-8"?>
<!-- Generator: Adobe Illustrator 18.1.1, SVG Export Plug-In . SVG Version: 6.00 Build 0)  -->
<svg version="1.1" id="Layer_1" xmlns="http://www.w3.org/2000/svg" xmlns:xlink="http://www.w3.org/1999/xlink" x="0px" y="0px"
	 viewBox="0 0 438.8 63" enable-background="new 0 0 438.8 63" xml:space="preserve">
<g>
	<polygon points="13.1,33.3 0.9,33.3 17.8,0 30,0 	"/>
	<polygon fill="#E61E25" points="27.6,33.3 15.4,33.3 32.3,0 44.5,0 	"/>
	<polygon fill="#F9C311" points="42.2,33.6 30.1,33.6 47,0.3 59.1,0.3 	"/>
</g>
<g>
	<path d="M227.1,0.1c0.3,0.1,0.6,0.1,1,0.2c1.6,0.1,3.2,0.3,4.7,0.6c1.5,0.3,2.9,0.6,4.3,1.2c0.7,0.3,1.3,0.6,1.9,1
		c2.7,1.7,3.8,4.2,3.5,7.3c-0.1,1.2-0.4,2.4-0.8,3.6c-1.4,4-3.5,7.6-6.3,10.7c-3.1,3.4-6.9,5.7-11.2,7.2c-2.9,1-5.8,1.6-8.8,2
		c-3.7,0.5-7.4,0.5-11.1,0.3c-2.5-0.1-5-0.5-7.4-1.2c-0.7-0.2-1.4-0.5-2-0.8c-0.6-0.3-1.2-0.6-1.7-1c-2.4-1.6-3.4-3.9-3.2-6.8
		c0.1-1.2,0.3-2.4,0.7-3.5c1.5-4.4,3.7-8.3,7-11.7c3.1-3.2,6.8-5.4,11-6.8c2.7-0.9,5.5-1.5,8.3-1.8c1.3-0.1,2.6-0.2,3.9-0.4
		c0.3,0,0.5-0.1,0.8-0.2C223.4,0.1,225.2,0.1,227.1,0.1z M220.2,8.7c-2.1,0-4.2,0.1-6.3,0.3c-1.3,0.1-2.5,0.4-3.8,0.7
		c-2.2,0.7-4.1,1.8-5.5,3.6c-1.5,1.9-2.6,4-3.4,6.4c-0.2,0.6-0.3,1.3-0.3,1.9c0,1.1,0.5,1.9,1.3,2.5c0.6,0.4,1.2,0.6,1.9,0.8
		c1.2,0.3,2.5,0.4,3.8,0.5c2.9,0.2,5.7,0.2,8.6,0c1.7-0.1,3.3-0.3,5-0.7c2.3-0.6,4.3-1.6,5.9-3.4c1.9-2.1,3.2-4.6,3.9-7.4
		c0.2-0.6,0.2-1.2,0.1-1.8c-0.1-0.8-0.4-1.5-1.1-2c-0.4-0.3-0.9-0.5-1.3-0.7c-0.8-0.3-1.6-0.5-2.4-0.6
		C224.4,8.8,222.3,8.8,220.2,8.7z"/>
	<path d="M370.5,0.1c0.2,0.1,0.4,0.2,0.6,0.2c1.2,0.3,2.1,1,2.6,2.2c0.3,0.6,0.4,1.2,0.6,1.8c1.8,8.7,3.6,17.4,5.5,26.1
		c0.2,1,0.4,2.1,0.7,3.2c-0.2,0-0.4,0.1-0.5,0.1c-0.2,0-0.5,0-0.7,0c-11.9,0-23.8,0-35.7,0c-0.4,0-0.7,0-1,0
		c-0.1-0.3,0.1-0.4,0.3-0.5c2.4-2,4.8-4,7.2-5.9c0.6-0.5,1.3-1.1,1.9-1.6c0.3-0.3,0.7-0.4,1.1-0.4c1.1,0,2.2,0,3.3,0
		c2.7,0,5.4,0,8.2,0c0.6,0,1.2,0,1.8,0c0.1-0.1,0.1-0.2,0-0.4c-0.8-4.2-1.7-8.4-2.5-12.5c0-0.1,0-0.2-0.1-0.2
		c-0.3-0.1-0.4,0.1-0.5,0.2c-1.8,1.5-3.7,3.1-5.5,4.6c-6.5,5.4-12.9,10.9-19.4,16.3c-0.4,0.3-0.8,0.5-1.3,0.5c-3.5,0-6.9,0-10.4,0
		c-0.2,0-0.5,0-0.8-0.1c0.1-0.3,0.4-0.5,0.6-0.6c3-2.5,5.9-5,8.9-7.5c8.4-7,16.8-14.1,25.2-21.1c1.2-1,2.5-2,3.9-2.8
		c1.1-0.6,2.3-1.1,3.5-1.3c0.2,0,0.3-0.1,0.5-0.2C369,0.1,369.8,0.1,370.5,0.1z"/>
	<path d="M438.8,1.2c-0.3,0.3-0.4,0.7-0.5,1c-1.6,3.4-3.2,6.7-4.9,10.1c-2.5,5.2-5,10.4-7.5,15.6c-0.7,1.5-1.6,2.8-2.8,3.9
		c-1.2,1.2-2.7,2-4.4,2.3c-0.8,0.2-1.7,0.2-2.5,0.1c-0.9-0.1-1.6-0.5-2.1-1.3c-0.2-0.3-0.4-0.6-0.6-0.9c-3.5-5.6-7.1-11.2-10.6-16.7
		c-0.2-0.3-0.3-0.5-0.5-0.8c-0.3,0.2-0.4,0.5-0.5,0.7c-2.2,4.5-4.3,8.9-6.5,13.4c-0.7,1.4-1.3,2.8-2,4.2c-0.1,0.3-0.3,0.5-0.4,0.8
		c-0.8,0.2-1.5,0.1-2.3,0.1c-0.7,0-1.5,0-2.2,0c-0.8,0-1.6,0-2.3,0c-0.7,0-1.5,0.1-2.2,0c-0.1-0.3,0.1-0.5,0.2-0.8
		c1.9-3.9,3.7-7.7,5.6-11.6c2.4-4.9,4.7-9.8,7.1-14.8c0.6-1.3,1.4-2.5,2.4-3.5c1.3-1.4,2.9-2.3,4.8-2.7c0.2,0,0.4-0.1,0.6-0.2
		c0.5,0,1.1,0,1.6,0c0.2,0.1,0.4,0.2,0.6,0.2c0.7,0.2,1.2,0.6,1.6,1.2c0.2,0.2,0.3,0.5,0.5,0.7c1.2,2,2.5,3.9,3.7,5.9
		c2.3,3.7,4.7,7.4,7,11c0.2,0.2,0.3,0.5,0.6,0.7c0.1-0.3,0.3-0.5,0.4-0.7c0.7-1.5,1.4-3,2.2-4.5c2.1-4.4,4.2-8.8,6.4-13.2
		c0.1-0.3,0.2-0.6,0.6-0.8c0.3,0,0.6,0,0.9,0c2.4,0,4.7,0,7.1,0c0.3,0,0.7,0,1-0.1C438.8,0.8,438.8,1,438.8,1.2z"/>
	<path d="M438.8,39.9c-0.4,0-0.7,0-1.1,0c-145.4,0-290.9,0-436.3,0c-0.4,0-0.8,0-1.3,0C-0.1,39.5,0,39,0,38.6c0.2,0,0.4-0.1,0.6-0.1
		c0.4,0,0.7,0,1.1,0c145.2,0,290.5,0,435.7,0c0.5,0,1,0,1.4,0C438.8,39,438.8,39.4,438.8,39.9z"/>
	<path d="M438.8,47.1c-0.3,0.1-0.3,0.5-0.4,0.7c-2.4,4.8-4.7,9.6-7,14.4c-0.1,0.2-0.2,0.4-0.3,0.5c-0.7,0.1-5.5,0.1-6.4,0
		c-0.2-0.2,0-0.4,0.1-0.6c0.8-1.7,1.7-3.4,2.5-5.2c0.1-0.3,0.3-0.5,0.3-0.9c-1.9,0-3.7,0-5.7,0c-1.1,2.2-2.1,4.4-3.2,6.6
		c-0.7,0.1-5.4,0.1-6.5,0c-0.1-0.4,0.2-0.6,0.3-0.9c1.6-3.3,3.2-6.6,4.8-9.9c0.7-1.4,1.4-2.9,2.1-4.3c0.1-0.3,0.3-0.6,0.4-0.8
		c0.7-0.1,5.6-0.1,6.5,0c-0.2,0.7-0.6,1.3-0.9,1.9c-0.3,0.6-0.6,1.2-0.9,1.9c-0.3,0.6-0.7,1.3-0.9,2c0.1,0.1,0.2,0.1,0.4,0.1
		c1.8,0,3.5,0,5.3,0c0.1-0.2,0.2-0.4,0.4-0.7c0.7-1.5,1.4-2.9,2.2-4.4c0.1-0.3,0.3-0.5,0.4-0.8c0.2,0,0.5,0,0.7,0c1.6,0,3.2,0,4.8,0
		c0.3,0,0.6,0,0.9-0.1C438.8,46.7,438.8,46.9,438.8,47.1z"/>
	<path d="M165.9,25.1c-0.8-0.1-14.9-0.1-15.7,0c-1.4,2.8-2.8,5.7-4.1,8.5c-0.8,0.1-9.3,0.1-10.1,0c0-0.3,0.2-0.6,0.3-0.9
		c1.9-4,3.8-8,5.7-11.9c0.5-1.1,1-2.2,1.6-3.2c0.1-0.2,0.3-0.5,0.4-0.7c0.4,0,0.7,0,1.1,0c9.1,0,18.2,0,27.2,0
		c1.3,0,2.6-0.1,3.9-0.6c0.9-0.3,1.7-0.7,2.4-1.3c0.9-0.7,1.5-1.7,1.8-2.8c0.2-0.9-0.1-1.6-0.9-2.1c-0.5-0.3-1-0.4-1.5-0.5
		c-0.7-0.1-1.4-0.1-2.1-0.1c-9,0-18,0-27.1,0c-0.3,0-0.6,0.1-1-0.1C147.8,9,148,9,148.1,8.9c3.3-2.6,6.5-5.2,9.8-7.8
		c0.3-0.2,0.6-0.4,1-0.4c0.1,0,0.2,0,0.4,0c6.8,0,13.5,0,20.3,0c2.1,0,4.2,0.2,6.2,0.7c1.3,0.3,2.6,0.8,3.7,1.5
		c1.4,0.9,2.3,2.2,2.6,3.8c0.2,1,0.1,2.1-0.2,3.1c-0.5,2-1.4,3.7-2.6,5.4c-2.7,3.6-6.1,6.1-10.5,7.4c-0.5,0.1-0.9,0.2-1.4,0.4
		c0.2,0.6,0.7,1.1,1,1.7c0.3,0.6,0.6,1.2,0.9,1.7c0.3,0.6,0.6,1.2,0.9,1.8c0.3,0.6,0.6,1.2,0.8,1.8c0.3,0.6,0.6,1.2,0.8,1.8
		c0.3,0.6,0.6,1.2,0.8,1.8c-0.2,0-0.3,0.1-0.5,0.1c-4.3,0-8.7,0-12.9,0c-0.3-0.3-0.4-0.6-0.5-0.9c-0.8-2.3-1.7-4.6-2.5-6.9
		C166.1,25.6,166,25.4,165.9,25.1z"/>
	<path d="M67.5,9.3c-0.7,1.3-1.2,2.5-1.9,3.8c0.2,0,0.4,0.1,0.5,0.1c0.3,0,0.5,0,0.8,0c7.8,0,15.6,0,23.5,0c0.3,0,0.6,0,0.9,0
		c0.1,0.3-0.1,0.4-0.2,0.5c-1.4,1.1-2.9,2.3-4.3,3.4c-1.3,1.1-2.7,2.1-4,3.2c-0.4,0.3-0.8,0.5-1.4,0.5c-6.1,0-12.1,0-18.2,0
		c-0.4,0-0.8,0-1.3,0c-0.7,1.4-1.3,2.7-2,4.1c0,0.1-0.1,0.2-0.1,0.4c1.1,0.1,2.1,0,3.1,0c1,0,2,0,3,0c1,0,2.1,0,3.1,0c1,0,2,0,3,0
		c1,0,2,0,3,0s2,0,3,0c1,0,2.1,0,3.1,0c1,0,2,0,3,0c1,0,2,0,3,0c0.1,0.3-0.2,0.4-0.3,0.5c-2.3,1.8-4.5,3.6-6.8,5.4
		c-0.9,0.7-1.9,1.5-2.8,2.2c-0.3,0.2-0.5,0.3-0.9,0.3c-0.2,0-0.4,0-0.5,0c-9.9,0-19.7,0-29.6,0c-0.3,0-0.7,0.1-1.1-0.1
		c0-0.1,0-0.2,0.1-0.3C50.9,22.6,56,11.8,61.2,1c0.1-0.1,0.1-0.2,0.2-0.3c12.5,0,25.1,0,37.6,0c0.1,0,0.2,0,0.3,0.1
		c-0.1,0.3-0.3,0.4-0.5,0.6c-2.7,2.2-5.4,4.3-8.1,6.5c-0.5,0.4-0.9,0.7-1.4,1.1c-0.3,0.2-0.6,0.3-0.9,0.3c-0.2,0-0.4,0-0.6,0
		c-6.4,0-12.7,0-19.1,0C68.3,9.3,67.9,9.3,67.5,9.3z"/>
	<path d="M340.1,0.8c-0.3,0.2-0.5,0.4-0.7,0.6c-3.1,2.4-6.1,4.9-9.2,7.3c-0.5,0.4-1,0.6-1.6,0.6c-6.4,0-12.7,0-19.1,0
		c-0.4,0-0.8,0-1.2,0c-0.5,0.6-1.8,3.2-1.9,3.9c1.2,0,2.4,0,3.7,0c1.2,0,2.4,0,3.7,0c1.2,0,2.4,0,3.7,0c1.2,0,2.4,0,3.6,0
		c1.2,0,2.4,0,3.7,0c1.2,0,2.4,0,3.7,0c1.2,0,2.4,0,3.7,0c0.1,0.3-0.2,0.4-0.3,0.5c-1.9,1.5-3.7,3-5.6,4.4c-0.9,0.7-1.9,1.5-2.8,2.2
		c-0.3,0.2-0.5,0.3-0.9,0.3c-0.7,0-1.3,0-2,0c-5.6,0-11.2,0-16.8,0c-0.3,0-0.7,0-0.9,0c-0.5,0.8-2,3.8-2.1,4.4c1,0.1,2,0,3,0
		c1,0,2,0,3,0c1,0,2.1,0,3.1,0c1,0,2,0,3,0c1,0,2,0,3,0c1,0,2,0,3,0c1,0,2.1,0,3.1,0c1,0,2,0,3,0c1,0,2,0,3,0
		c0.1,0.3-0.2,0.4-0.3,0.5c-2.6,2.1-5.3,4.2-7.9,6.3c-0.6,0.4-1.1,0.9-1.7,1.3c-0.3,0.2-0.6,0.3-0.9,0.3c-0.2,0-0.4,0-0.6,0
		c-9.8,0-19.6,0-29.4,0c-0.4,0-0.7,0-1,0c-0.1-0.4,0.1-0.6,0.2-0.8c1.3-2.6,2.5-5.3,3.8-7.9c3.7-7.8,7.5-15.5,11.2-23.3
		c0.1-0.3,0.3-0.6,0.4-0.8c0.1-0.1,0.1-0.1,0.1-0.1c0,0,0.1,0,0.1,0c0.1,0,0.3,0,0.4,0c12.4,0,24.7,0,37.1,0
		C339.9,0.7,339.9,0.8,340.1,0.8z"/>
	<path d="M251.7,25.3c-0.5,0.9-0.9,1.9-1.4,2.8c-0.5,0.9-0.9,1.9-1.4,2.8c-0.4,0.9-0.9,1.8-1.3,2.8c-0.2,0-0.4,0.1-0.6,0.1
		c-3,0-5.9,0-8.9,0c-0.2,0-0.4,0-0.5,0c-0.1-0.4,0.2-0.6,0.3-0.9c1.9-3.9,3.7-7.7,5.6-11.6c0.6-1.2,1.1-2.4,1.7-3.5
		c0.1-0.2,0.2-0.5,0.4-0.7c0.4,0,0.7,0,1.1,0c9,0,17.9,0,26.9,0c0.9,0,1.7,0,2.6-0.2c1.5-0.4,2.9-1.2,3.9-2.4
		c0.5-0.7,0.9-1.4,1.1-2.2c0.2-1-0.2-1.7-1-2.2c-0.7-0.3-1.4-0.4-2.1-0.5c-0.3,0-0.7,0-1,0c-8.8,0-17.7,0-26.5,0
		c-0.3,0-0.7,0.1-1-0.1c-0.1-0.2,0.1-0.3,0.2-0.4c3.3-2.6,6.6-5.2,9.9-7.8c0.3-0.2,0.6-0.4,1-0.3c0.1,0,0.2,0,0.4,0
		c6.6,0,13.2,0,19.8,0c1.9,0,3.8,0.1,5.6,0.7c1,0.3,1.9,0.7,2.8,1.2c2.5,1.5,3.5,3.9,3.1,6.6c-0.2,1.4-0.6,2.7-1.3,3.9
		c-1.7,3.6-4.3,6.3-7.7,8.4c-2.8,1.7-5.9,2.8-9.2,3.4c-1.8,0.3-3.7,0.4-5.5,0.4c-5.3,0-10.5,0-15.8,0
		C252.4,25.3,252.1,25.3,251.7,25.3z"/>
	<path d="M135.7,0.8c1-0.1,9.4-0.1,10.1,0c0.1,0.3-0.1,0.5-0.2,0.7c-1.1,2.3-2.2,4.7-3.4,7c-1.7,3.5-3.4,7.1-5.1,10.6
		c-0.9,1.9-2,3.6-3.3,5.2c-2.9,3.7-6.7,6.2-11.1,7.7c-2.3,0.8-4.6,1.3-7,1.6c-3.6,0.5-7.1,0.5-10.7,0.3c-2.2-0.1-4.3-0.4-6.4-1
		c-0.9-0.3-1.9-0.6-2.7-1.1c-0.8-0.4-1.5-0.9-2.2-1.6c-1.1-1.2-1.7-2.6-1.8-4.2c-0.1-1.4,0.2-2.7,0.6-4c0.3-1,0.7-1.9,1.1-2.8
		c2.9-6,5.8-12.1,8.7-18.1c0.1-0.2,0.2-0.4,0.3-0.6c0.8-0.1,9.2-0.1,10,0c0.2,0.3,0,0.5-0.1,0.7c-0.9,1.9-1.8,3.8-2.8,5.7
		c-1.9,4-3.8,8-5.8,11.9c-0.4,0.9-0.8,1.8-1,2.9c-0.3,1.4,0.4,2.3,1.4,2.7c0.7,0.4,1.5,0.6,2.3,0.7c1.2,0.1,2.5,0.3,3.7,0.3
		c1.6,0.1,3.2,0.1,4.7,0c1.7,0,3.3-0.2,5-0.7c2.6-0.7,4.7-2.2,6-4.6c0.3-0.5,0.5-0.9,0.8-1.4c2.8-5.8,5.6-11.6,8.4-17.3
		C135.4,1.4,135.6,1.1,135.7,0.8z"/>
	<path d="M329.3,62.6c-1,0-2.4-0.1-3.8-0.5c-0.7-0.2-1.3-0.5-1.9-0.9c-1-0.7-1.6-1.7-1.7-3c0-0.9,0.1-1.7,0.4-2.6
		c1.4-4.1,4-6.9,7.9-8.6c1.9-0.8,3.9-1.3,6-1.4c1.7-0.1,3.3,0,5,0.3c0.7,0.2,1.4,0.4,2,0.7c1.7,0.9,2.4,2.4,2.2,4.3
		c-0.1,0.7-0.3,1.4-0.6,2.1c-1.9,4.5-5.2,7.4-9.8,8.8C333.5,62.4,331.6,62.6,329.3,62.6z M331.3,59c1.7-0.1,3.2-0.7,4.3-2
		c1.2-1.4,2-3,2.5-4.7c0.2-0.5,0.2-1,0.1-1.5c-0.1-0.5-0.4-0.9-0.9-1.2c-0.2-0.1-0.4-0.2-0.7-0.2c-1.4-0.2-2.6,0.1-3.7,0.9
		c-0.7,0.5-1.3,1.1-1.7,1.8c-0.9,1.3-1.6,2.7-2,4.2c-0.1,0.3-0.2,0.7-0.2,1.1c-0.1,0.7,0.3,1.2,0.9,1.5
		C330.4,58.9,330.9,58.9,331.3,59z"/>
	<path d="M298.4,45.9c2.2-0.1,5.9,0,6.6,0.1c-0.1,0.2-0.2,0.4-0.3,0.6c-1.6,3.2-3.2,6.5-4.7,9.7c-1.4,3-3.8,4.8-7.1,5.5
		c-2.3,0.5-4.7,0.6-7.1,0.5c-0.8-0.1-1.6-0.2-2.4-0.3c-0.6-0.1-1.3-0.3-1.9-0.6c-1-0.5-1.5-1.3-1.4-2.4c0-0.6,0.1-1.2,0.3-1.8
		c0.2-0.5,0.4-1,0.6-1.5c1.5-3.1,3.1-6.3,4.6-9.4c0.1-0.2,0.2-0.4,0.3-0.6c2.2,0,4.4,0,6.6,0c0.1,0.4-0.1,0.6-0.2,0.8
		c-1.4,3-2.9,5.9-4.3,8.9c-0.2,0.5-0.4,0.9-0.7,1.4c-0.1,0.2-0.2,0.4-0.2,0.6c-0.1,0.4,0,0.8,0.3,1c0.3,0.2,0.6,0.3,0.9,0.4
		c0.8,0.1,1.7,0.1,2.5-0.1c1-0.3,1.8-0.9,2.3-1.9c1.6-3.4,3.3-6.7,4.9-10.1C298.1,46.5,298.2,46.2,298.4,45.9z"/>
	<path d="M275.2,61.9c-2.3,0-4.5,0-6.7,0c-0.1-0.5,0-0.9,0-1.3c0-0.4,0.1-0.8,0.1-1.3c-0.3,0-0.5-0.1-0.7-0.1c-1.9,0-3.8,0-5.6-0.1
		c-0.5,0-0.8,0.1-1.1,0.5c-0.5,0.6-1.1,1.2-1.7,1.9c-0.2,0.2-0.4,0.3-0.7,0.3c-2,0-4.1,0-6.1,0c-0.2-0.3,0.1-0.4,0.2-0.5
		c1.7-1.8,3.5-3.6,5.2-5.4c3-3.1,6.1-6.3,9.1-9.4c0.1-0.2,0.3-0.3,0.4-0.5c0.2-0.2,0.4-0.3,0.7-0.3c2.2,0,4.4,0,6.6,0.1
		c0.1,0,0.2,0,0.3,0.1c0.1,0.3,0.1,0.6,0.1,1c0,3.8-0.1,7.6-0.1,11.5c0,0.9,0,1.8,0,2.8C275.3,61.3,275.3,61.6,275.2,61.9z
		 M269.8,49.9c-1.7,2-3.3,4-5,5.9c-0.1,0.1-0.1,0.1-0.2,0.2c0,0,0,0.1,0,0.1c0,0,0,0.1,0,0.1c0,0,0.1,0.1,0.1,0.1c1.3,0,2.5,0,3.8,0
		c0.1,0,0.2-0.1,0.3-0.1c0.1-1.1,0.3-2.1,0.4-3.1C269.3,52,269.6,50.9,269.8,49.9z"/>
	<path d="M387.3,62.5c-1.2,0.1-12.6,0-13.2-0.1c0-0.1,0-0.2,0-0.3c2.6-5.3,5.1-10.5,7.7-15.7c0.9-0.1,12.5-0.1,13.2,0
		c-0.1,0.6-0.8,2.1-1.5,3.3c-2.2,0-4.4,0-6.6,0c-0.4,0.4-0.6,0.9-0.8,1.4c-0.2,0.5-0.5,0.9-0.7,1.5c0.4,0.1,0.7,0.1,1.1,0.1
		c0.4,0,0.8,0,1.2,0c0.4,0,0.7,0,1.1,0c0.4,0,0.8,0,1.2,0c0.4,0,0.7,0,1.1,0c-0.1,0.7-0.5,1.2-0.7,1.8c-0.2,0.5-0.5,1.1-0.8,1.6
		c-1.9,0-3.8,0-5.7,0c-0.6,0.9-1.2,2.2-1.3,2.9c1.1,0.1,2.1,0,3.2,0c1.1,0,2.1,0,3.3,0c-0.1,0.7-0.5,1.2-0.7,1.8
		C387.9,61.4,387.6,61.9,387.3,62.5z"/>
	<path d="M415.6,46.4c-0.2,0.7-1.3,3-1.8,3.8c-0.3,0-0.6-0.1-0.9-0.1c-1.2-0.2-2.3-0.3-3.5-0.1c-2.1,0.2-4,1-5.6,2.4
		c-1,0.9-1.7,2-2,3.3c-0.3,1.2,0.1,2.2,1.2,2.8c0.6,0.4,1.3,0.5,2,0.6c1.2,0.1,2.3,0.1,3.5-0.1c0.3,0,0.6-0.2,1,0
		c-0.2,0.7-1.2,2.7-1.7,3.7c-0.7,0.3-1.6,0.3-2.4,0.3c-2.1,0.2-4.1,0.1-6.1-0.5c-0.6-0.2-1.1-0.4-1.7-0.6c-0.4-0.2-0.7-0.4-1-0.6
		c-1.9-1.3-2.6-3.2-2-5.4c0.5-1.6,1.3-3.1,2.5-4.3c0.9-0.9,1.9-1.7,3-2.4c2.9-1.7,6-2.7,9.4-3.1c1.7-0.2,3.4-0.2,5.1,0
		C414.9,46.2,415.2,46.3,415.6,46.4z"/>
	<path d="M377.7,46.4c-0.6,1.2-1.1,2.4-1.7,3.5c-1.5,0.1-3,0-4.5,0c-1.1,2-2,4.1-3,6.2c-1,2.1-2,4.1-3,6.2c-0.7,0.2-1.5,0.1-2.2,0.1
		c-0.7,0-1.5,0-2.2,0c-0.7,0-1.4,0-2.2,0c-0.1-0.4,0.2-0.7,0.3-0.9c1.7-3.5,3.4-7,5.1-10.5c0.1-0.3,0.3-0.6,0.4-1
		c-1.4-0.1-2.8,0-4.2-0.1c0-0.1-0.1-0.1-0.1-0.1c0-0.1,0.1-0.2,0.1-0.3c0.5-1,1-2.1,1.5-3.1c0.1,0,0.1-0.1,0.1-0.1c0,0,0.1,0,0.1,0
		c0.2,0,0.4,0,0.5,0c4.9,0,9.8,0.1,14.7,0.1C377.4,46.3,377.5,46.4,377.7,46.4z"/>
	<path d="M318.2,49.7c-2,4.1-4,8.2-6,12.3c-0.8,0.1-5.8,0.1-6.6,0c-0.1-0.3,0.1-0.5,0.2-0.7c0.8-1.7,1.6-3.4,2.5-5.1
		c0.9-1.9,1.8-3.8,2.7-5.6c0.1-0.3,0.2-0.5,0.4-0.9c-0.4-0.2-0.8-0.1-1.1-0.1c-0.4,0-0.7,0-1.1,0c-0.3,0-0.7,0-1,0
		c-0.4,0-0.7,0-1.1,0c0-0.1,0-0.2,0-0.3c0.5-1.1,1.1-2.2,1.6-3.3c5.2,0,10.4,0,15.6,0.1c-0.2,0.7-1.1,2.7-1.7,3.7
		C321.3,49.8,319.8,49.6,318.2,49.7z"/>
</g>
<g>
</g>
<g>
</g>
<g>
</g>
<g>
</g>
<g>
</g>
<g>
</g>
</svg>
