<?xml version="1.0" encoding="utf-8"?>
<!-- Generator: Adobe Illustrator 18.1.1, SVG Export Plug-In . SVG Version: 6.00 Build 0)  -->
<svg version="1.1" id="Layer_1" xmlns="http://www.w3.org/2000/svg" xmlns:xlink="http://www.w3.org/1999/xlink" x="0px" y="0px"
	 viewBox="0 0 456.9 563.6" enable-background="new 0 0 456.9 563.6" xml:space="preserve">
<g>
	<path d="M379.7,563.6c0-4.2,0-8.5,0-12.7c0-20.1,0-40.1,0-60.2c0-1,0-1.9,0-3.1c0.8-0.1,1.5-0.2,2.2-0.2c4.1,0,8.2,0.1,12.2,0
		c1.6,0,2.6,0.5,3.6,1.7c11.8,14.1,23.7,28.1,35.5,42.2c0.6,0.7,1.1,1.3,1.8,2.1c0.8-0.9,0.5-1.9,0.5-2.8c0-13.4,0-26.7,0-40.1
		c0-0.9,0-1.9,0-3c6.1,0,12,0,18.2,0c0,1,0,2,0,2.9c0,23.3,0,46.7,0,70c0,1,0.1,2.1,0.2,3.1c-5.3,0-10.6,0-15.8,0
		c-0.3-0.5-0.5-1-0.8-1.4c-12.7-15.2-25.4-30.5-38.1-45.7c-0.3-0.4-0.8-0.7-1.3-1.2c-0.1,0.6-0.1,0.9-0.1,1.2c0,15.7,0,31.3,0,47
		C391.8,563.6,385.8,563.6,379.7,563.6z"/>
	<path d="M165.1,563.6c0-19.9,0-39.8,0-59.7c0-4.6,0-9.3,0-13.9c0-0.8,0.1-1.5,0.1-2.4c0.8,0,1.4-0.1,2-0.1c4.2,0,8.3,0,12.5,0
		c1.4,0,2.3,0.4,3.2,1.5c9.2,11,18.4,21.9,27.6,32.8c2.8,3.3,5.6,6.6,8.3,9.9c0.5,0.6,1,1.1,2,2.1c0-15.7,0-30.8,0-46.3
		c6.1-0.1,12,0,18,0c0.1,0.9,0.2,1.5,0.2,2.1c0,24.4,0,48.8,0,73.1c0,0.3-0.1,0.6-0.1,1c-5.1,0-10.2,0-15.4,0
		c-0.3-0.4-0.5-0.8-0.8-1.2c-12.7-15.3-25.5-30.6-38.2-45.8c-0.3-0.4-0.7-0.7-1.4-1.3c0,1.2,0,2,0,2.8c0,14.4,0,28.8,0,43.1
		c0,0.8,0.1,1.6,0.1,2.4C177.3,563.6,171.2,563.6,165.1,563.6z"/>
	<path d="M1,563.6c0-25.3,0-50.5,0-76c0.7-0.1,1.3-0.2,1.9-0.2c10.4,0,20.8-0.1,31.2,0c5.4,0.1,10.7,0.7,15.8,2.7
		c12.6,4.8,20.3,13.8,23,27c1.4,7.2,1.2,14.5-1,21.6c-3.7,12-12,19.3-23.9,22.8c-2.5,0.7-5.2,1.1-7.7,1.6c-0.6,0.1-1.2,0.3-1.8,0.5
		C25.9,563.6,13.4,563.6,1,563.6z M19.3,549.6c5.4,0,10.7,0.4,15.8-0.1c10-0.9,16.6-6.9,19-16.3c1.3-5.1,1.3-10.3,0-15.4
		c-2.2-8.6-7.7-14-16.5-15.7c-5.9-1.2-11.9-0.8-17.9-0.6c-0.1,0-0.1,0.1-0.3,0.3C19.3,517.5,19.3,533.5,19.3,549.6z"/>
	<path d="M268.3,563.6c1.9-4.9,3.9-9.8,5.8-14.7c7.5-19.6,15-39.2,22.6-58.8c0.3-0.9,0.7-1.7,1.1-2.6c7.1,0,14,0,21.3,0
		c10.7,25.3,21.5,50.7,32.3,76.1c-6.6,0-13.1,0-19.7,0c-1.9-5-3.8-9.9-5.8-14.9c-11,0-21.8,0-32.7,0c-0.7,2-1.5,3.9-2.2,5.8
		c-1,3-2,6-3,9C281.4,563.6,274.9,563.6,268.3,563.6z M298.1,535c3.2,0.6,20.5,0.4,22-0.2c-0.9-3.6-10.5-27.1-11.7-28.5
		C305,515.9,301.5,525.5,298.1,535z"/>
	<path d="M108.5,563.6c0.1-1,0.2-2.1,0.2-3.1c0-23.3,0-46.7,0-70c0-0.9,0-1.9,0-3c6.2,0,12,0,18.1,0c0,0.9,0.1,1.7,0.1,2.5
		c0,23.8,0,47.6,0,71.4c0,0.7-0.1,1.4-0.2,2.1C120.6,563.6,114.6,563.6,108.5,563.6z"/>
	<path d="M158.8,319.7c0-70.2,0-140.3,0-210.5c0.7-0.1,1.4-0.2,2.1-0.2c17.6,0,35.2-0.1,52.8,0.1c14.2,0.1,28.2,2.2,41.6,7.3
		c25.4,9.6,42.4,27.6,51.8,52.9c3.4,9.2,5.4,18.7,6.4,28.5c1,9.7,1.2,19.3,0.4,29c-1.3,16.2-5.2,31.7-13.2,46
		c-13,23.2-32.7,37.6-58.6,43.6c-10.1,2.3-20.3,3.3-30.7,3.4c-16.7,0-33.4,0-50.1,0C160.5,319.7,159.7,319.7,158.8,319.7z"/>
	<path d="M383.5,284.8c0.2-0.7,0.5-1.5,0.7-2.2c5.1-13.2,8.2-26.9,10-40.9c1.6-12.7,1.9-25.4,1.3-38.1c-1.3-25.8-7.1-50.5-19.9-73.2
		c-20.6-36.5-51.1-60.9-91.1-73.3c-13.3-4.1-26.8-6.5-40.7-7.8c-9.1-0.9-18.2-1.1-27.3-1.1c-10.3,0-20.6,0-31,0c-0.9,0-1.7,0-2.6,0
		c0-0.1-0.1-0.3-0.1-0.4c0.3-0.2,0.5-0.5,0.8-0.7c28.2-16.8,57.9-30.2,89.8-38.7c22.6-6,45.6-9.3,69-8.3c19.2,0.8,37.8,4.5,55.2,13
		c28.4,13.9,46.6,36.3,54.8,66.7c3.8,13.9,4.9,28.2,4.1,42.6c-1.4,27.7-9,53.8-20.1,79c-13.2,30-30.9,57.2-51.8,82.4
		c-0.3,0.4-0.6,0.8-0.8,1.1C383.8,285,383.7,284.9,383.5,284.8z"/>
	<path d="M79.3,135.4c0,81.5,0,163.1,0,244.9c1.2,0.1,2.2,0.1,3.2,0.1c25.8,0,51.5,0,77.3,0c16.6,0,33.3,0,49.9,0
		c14.2,0,28.3-0.7,42.3-2.6c11.1-1.5,22.1-3.7,32.8-6.9c0.9-0.3,1.8-0.5,2.9-0.5c-0.3,0.3-0.6,0.6-0.9,0.8
		c-30.5,19.9-63,35.7-98.1,45.8c-14.2,4.1-28.7,7.1-43.4,8.7c-20.7,2.2-41.2,1.8-61.5-3.2c-17.2-4.2-32.9-11.4-46.5-22.8
		c-17.1-14.4-27.9-32.7-33.4-54.2c-3.5-14-4.5-28.2-3.6-42.6c1.6-26.3,8.8-51.3,19.2-75.4c13-30.1,30.6-57.4,51.2-82.7
		c2.6-3.2,5.3-6.3,8-9.5C78.9,135.2,79.1,135.3,79.3,135.4z"/>
</g>
</svg>
