<?xml version="1.0" encoding="utf-8"?>
<!-- Generator: Adobe Illustrator 18.1.1, SVG Export Plug-In . SVG Version: 6.00 Build 0)  -->
<svg version="1.1" id="Layer_1" xmlns="http://www.w3.org/2000/svg" xmlns:xlink="http://www.w3.org/1999/xlink" x="0px" y="0px"
	 viewBox="0 18.4 518.6 640.1" enable-background="new 0 18.4 518.6 640.1" xml:space="preserve">
<g>
	<path d="M431.1,658.4c0-4.8,0-9.7,0-14.4c0-22.8,0-45.5,0-68.3c0-1.1,0-2.2,0-3.5c0.9-0.1,1.7-0.2,2.5-0.2c4.7,0,9.3,0.1,13.9,0
		c1.8,0,3,0.6,4.1,1.9c13.4,16,26.9,31.9,40.3,47.9c0.7,0.8,1.2,1.5,2,2.4c0.9-1,0.6-2.2,0.6-3.2c0-15.2,0-30.3,0-45.5
		c0-1,0-2.2,0-3.4c6.9,0,13.6,0,20.7,0c0,1.1,0,2.3,0,3.3c0,26.5,0,53,0,79.5c0,1.1,0.1,2.4,0.2,3.5c-6,0-12,0-17.9,0
		c-0.3-0.6-0.6-1.1-0.9-1.6c-14.4-17.3-28.8-34.6-43.3-51.9c-0.3-0.5-0.9-0.8-1.5-1.4c-0.1,0.7-0.1,1-0.1,1.4c0,17.8,0,35.5,0,53.4
		C444.8,658.4,438,658.4,431.1,658.4z"/>
	<path d="M187.4,658.4c0-22.6,0-45.2,0-67.8c0-5.2,0-10.6,0-15.8c0-0.9,0.1-1.7,0.1-2.7c0.9,0,1.6-0.1,2.3-0.1c4.8,0,9.4,0,14.2,0
		c1.6,0,2.6,0.5,3.6,1.7c10.4,12.5,20.9,24.9,31.3,37.2c3.2,3.7,6.4,7.5,9.4,11.2c0.6,0.7,1.1,1.2,2.3,2.4c0-17.8,0-35,0-52.6
		c6.9-0.1,13.6,0,20.4,0c0.1,1,0.2,1.7,0.2,2.4c0,27.7,0,55.4,0,83c0,0.3-0.1,0.7-0.1,1.1c-5.8,0-11.6,0-17.5,0
		c-0.3-0.5-0.6-0.9-0.9-1.4c-14.4-17.4-29-34.7-43.4-52c-0.3-0.5-0.8-0.8-1.6-1.5c0,1.4,0,2.3,0,3.2c0,16.3,0,32.7,0,48.9
		c0,0.9,0.1,1.8,0.1,2.7C201.3,658.4,194.4,658.4,187.4,658.4z"/>
	<path d="M1.1,658.4c0-28.7,0-57.3,0-86.3c0.8-0.1,1.5-0.2,2.2-0.2c11.8,0,23.6-0.1,35.4,0c6.1,0.1,12.1,0.8,17.9,3.1
		c14.3,5.4,23,15.7,26.1,30.7c1.6,8.2,1.4,16.5-1.1,24.5C77.4,643.8,68,652.1,54.5,656c-2.8,0.8-5.9,1.2-8.7,1.8
		c-0.7,0.1-1.4,0.3-2,0.6C29.4,658.4,15.2,658.4,1.1,658.4z M21.9,642.5c6.1,0,12.1,0.5,17.9-0.1c11.4-1,18.8-7.8,21.6-18.5
		c1.5-5.8,1.5-11.7,0-17.5c-2.5-9.8-8.7-15.9-18.7-17.8c-6.7-1.4-13.5-0.9-20.3-0.7c-0.1,0-0.1,0.1-0.3,0.3
		C21.9,606.1,21.9,624.2,21.9,642.5z"/>
	<path d="M304.6,658.4c2.2-5.6,4.4-11.1,6.6-16.7c8.5-22.3,17-44.5,25.7-66.8c0.3-1,0.8-1.9,1.2-3c8.1,0,15.9,0,24.2,0
		c12.1,28.7,24.4,57.6,36.7,86.4c-7.5,0-14.9,0-22.4,0c-2.2-5.7-4.3-11.2-6.6-16.9c-12.5,0-24.8,0-37.1,0c-0.8,2.3-1.7,4.4-2.5,6.6
		c-1.1,3.4-2.3,6.8-3.4,10.2C319.5,658.4,312.1,658.4,304.6,658.4z M338.5,626c3.6,0.7,23.3,0.5,25-0.2c-1-4.1-11.9-30.8-13.3-32.4
		C346.3,604.3,342.3,615.2,338.5,626z"/>
	<path d="M123.2,658.4c0.1-1.1,0.2-2.4,0.2-3.5c0-26.5,0-53,0-79.5c0-1,0-2.2,0-3.4c7,0,13.6,0,20.6,0c0,1,0.1,1.9,0.1,2.8
		c0,27,0,54,0,81.1c0,0.8-0.1,1.6-0.2,2.4C136.9,658.4,130.1,658.4,123.2,658.4z"/>
	<path d="M180.3,381.5c0-79.7,0-159.3,0-239c0.8-0.1,1.6-0.2,2.4-0.2c20,0,40-0.1,59.9,0.1c16.1,0.1,32,2.5,47.2,8.3
		c28.8,10.9,48.1,31.3,58.8,60.1c3.9,10.4,6.1,21.2,7.3,32.4c1.1,11,1.4,21.9,0.5,32.9c-1.5,18.4-5.9,36-15,52.2
		c-14.8,26.3-37.1,42.7-66.5,49.5c-11.5,2.6-23,3.7-34.9,3.9c-19,0-37.9,0-56.9,0C182.2,381.5,181.3,381.5,180.3,381.5z"/>
	<path d="M435.4,341.9c0.2-0.8,0.6-1.7,0.8-2.5c5.8-15,9.3-30.5,11.4-46.4c1.8-14.4,2.2-28.8,1.5-43.3c-1.5-29.3-8.1-57.3-22.6-83.1
		c-23.4-41.4-58-69.1-103.4-83.2c-15.1-4.7-30.4-7.4-46.2-8.9c-10.3-1-20.7-1.2-31-1.2c-11.7,0-23.4,0-35.2,0c-1,0-1.9,0-3,0
		c0-0.1-0.1-0.3-0.1-0.5c0.3-0.2,0.6-0.6,0.9-0.8c32-19.1,65.7-34.3,102-43.9c25.7-6.8,51.8-10.6,78.3-9.4
		c21.8,0.9,42.9,5.1,62.7,14.8c32.2,15.8,52.9,41.2,62.2,75.7c4.3,15.8,5.6,32,4.7,48.4c-1.6,31.4-10.2,61.1-22.8,89.7
		c-15,34.1-35.1,64.9-58.8,93.6c-0.3,0.5-0.7,0.9-0.9,1.2C435.8,342.1,435.6,342,435.4,341.9z"/>
	<path d="M90,172.3c0,92.5,0,185.2,0,278.1c1.4,0.1,2.5,0.1,3.6,0.1c29.3,0,58.5,0,87.8,0c18.8,0,37.8,0,56.7,0
		c16.1,0,32.1-0.8,48-3c12.6-1.7,25.1-4.2,37.2-7.8c1-0.3,2-0.6,3.3-0.6c-0.3,0.3-0.7,0.7-1,0.9c-34.6,22.6-71.5,40.5-111.4,52
		c-16.1,4.7-32.6,8.1-49.3,9.9c-23.5,2.5-46.8,2-69.8-3.6c-19.5-4.8-37.4-12.9-52.8-25.9C22.9,456,10.7,435.2,4.4,410.8
		c-4-15.9-5.1-32-4.1-48.4c1.8-29.9,10-58.2,21.8-85.6c14.8-34.2,34.7-65.2,58.1-93.9c3-3.6,6-7.2,9.1-10.8
		C89.6,172,89.8,172.1,90,172.3z"/>
</g>
</svg>
